<svg width="52" height="70" viewBox="0 0 52 70" fill="none" xmlns="http://www.w3.org/2000/svg">
<circle cx="25.7327" cy="26.0496" r="25.6634" fill="#F7DE5D" fill-opacity="0.1"/>
<path d="M18.3331 60.2869H19.2119L21.4533 65.8647L23.6901 60.2869H24.5735L21.7917 67.1288H21.1056L18.3331 60.2869ZM18.0465 60.2869H18.8218L18.9487 64.4597V67.1288H18.0465V60.2869ZM24.0801 60.2869H24.8555V67.1288H23.9533V64.4597L24.0801 60.2869ZM29.3149 66.2595V63.6421C29.3149 63.4416 29.2742 63.2677 29.1928 63.1204C29.1144 62.9701 28.9954 62.8542 28.8356 62.7727C28.6759 62.6913 28.4785 62.6505 28.2435 62.6505C28.0242 62.6505 27.8316 62.6881 27.6655 62.7633C27.5026 62.8385 27.3742 62.9372 27.2802 63.0594C27.1894 63.1815 27.1439 63.3131 27.1439 63.4541H26.2746C26.2746 63.2724 26.3216 63.0923 26.4156 62.9137C26.5096 62.7351 26.6443 62.5738 26.8197 62.4297C26.9983 62.2824 27.2113 62.1665 27.4588 62.0819C27.7094 61.9942 27.9882 61.9504 28.2952 61.9504C28.6649 61.9504 28.9907 62.013 29.2726 62.1383C29.5577 62.2636 29.7801 62.4532 29.9399 62.7069C30.1028 62.9575 30.1843 63.2724 30.1843 63.6514V66.0198C30.1843 66.189 30.1984 66.3691 30.2266 66.5602C30.2579 66.7513 30.3033 66.9158 30.3628 67.0536V67.1288H29.4559C29.412 67.0285 29.3776 66.8954 29.3525 66.7294C29.3275 66.5602 29.3149 66.4036 29.3149 66.2595ZM29.4653 64.0462L29.4747 64.6571H28.596C28.3485 64.6571 28.1276 64.6774 27.9334 64.7181C27.7392 64.7557 27.5763 64.8137 27.4447 64.892C27.3131 64.9703 27.2129 65.069 27.1439 65.1881C27.075 65.304 27.0406 65.4402 27.0406 65.5969C27.0406 65.7566 27.0766 65.9023 27.1486 66.0339C27.2207 66.1655 27.3288 66.2704 27.4729 66.3487C27.6201 66.4239 27.8003 66.4615 28.0133 66.4615C28.2796 66.4615 28.5145 66.4051 28.7181 66.2923C28.9218 66.1796 29.0831 66.0417 29.2022 65.8788C29.3243 65.7159 29.3901 65.5577 29.3995 65.4042L29.7707 65.8224C29.7488 65.954 29.6893 66.0997 29.5922 66.2595C29.4951 66.4192 29.3651 66.5727 29.2022 66.72C29.0424 66.8641 28.8513 66.9847 28.6289 67.0818C28.4096 67.1758 28.1621 67.2228 27.8864 67.2228C27.5418 67.2228 27.2395 67.1554 26.9795 67.0207C26.7226 66.886 26.5221 66.7059 26.378 66.4803C26.237 66.2516 26.1665 65.9963 26.1665 65.7144C26.1665 65.4418 26.2198 65.2022 26.3263 64.9954C26.4328 64.7855 26.5863 64.6116 26.7868 64.4738C26.9873 64.3328 27.2285 64.2263 27.5105 64.1543C27.7924 64.0822 28.1073 64.0462 28.455 64.0462H29.4653ZM32.4962 62.0444V67.1288H31.6222V62.0444H32.4962ZM31.5564 60.6957C31.5564 60.5547 31.5987 60.4357 31.6833 60.3386C31.771 60.2415 31.8994 60.1929 32.0686 60.1929C32.2346 60.1929 32.3615 60.2415 32.4492 60.3386C32.5401 60.4357 32.5855 60.5547 32.5855 60.6957C32.5855 60.8304 32.5401 60.9463 32.4492 61.0434C32.3615 61.1374 32.2346 61.1844 32.0686 61.1844C31.8994 61.1844 31.771 61.1374 31.6833 61.0434C31.5987 60.9463 31.5564 60.8304 31.5564 60.6957ZM34.8364 59.911V67.1288H33.9623V59.911H34.8364Z" fill="#222222"/>
</svg>
