<svg width="52" height="70" viewBox="0 0 52 70" fill="none" xmlns="http://www.w3.org/2000/svg">
<circle cx="26.3267" cy="26.0496" r="25.6634" fill="#25D366" fill-opacity="0.1"/>
<path d="M6.82307 65.0612L8.18111 60.2869H8.83899L8.45836 62.143L6.99694 67.1288H6.34376L6.82307 65.0612ZM5.41804 60.2869L6.49883 64.9672L6.82307 67.1288H6.17459L4.51581 60.2869H5.41804ZM10.5965 64.9625L11.6537 60.2869H12.5607L10.9066 67.1288H10.2581L10.5965 64.9625ZM8.93767 60.2869L10.2581 65.0612L10.7374 67.1288H10.0842L8.67452 62.143L8.28919 60.2869H8.93767ZM14.304 59.911V67.1288H13.4347V59.911H14.304ZM14.0973 64.3939L13.7355 64.3798C13.7386 64.0321 13.7903 63.711 13.8905 63.4165C13.9908 63.1189 14.1317 62.8604 14.3134 62.6411C14.4951 62.4218 14.7113 62.2527 14.9619 62.1336C15.2157 62.0115 15.496 61.9504 15.8031 61.9504C16.0537 61.9504 16.2792 61.9848 16.4797 62.0538C16.6802 62.1195 16.851 62.2261 16.9919 62.3733C17.136 62.5205 17.2457 62.7116 17.3209 62.9466C17.3961 63.1784 17.4336 63.4619 17.4336 63.7971V67.1288H16.5596V63.7877C16.5596 63.5214 16.5205 63.3084 16.4421 63.1486C16.3638 62.9857 16.2495 62.8683 16.0991 62.7962C15.9487 62.721 15.7639 62.6834 15.5446 62.6834C15.3284 62.6834 15.1311 62.7289 14.9525 62.8197C14.7771 62.9106 14.6251 63.0359 14.4967 63.1956C14.3714 63.3554 14.2727 63.5387 14.2007 63.7454C14.1317 63.9491 14.0973 64.1652 14.0973 64.3939ZM21.7333 66.2595V63.6421C21.7333 63.4416 21.6926 63.2677 21.6111 63.1204C21.5328 62.9701 21.4138 62.8542 21.254 62.7727C21.0942 62.6913 20.8969 62.6505 20.6619 62.6505C20.4426 62.6505 20.25 62.6881 20.0839 62.7633C19.921 62.8385 19.7926 62.9372 19.6986 63.0594C19.6078 63.1815 19.5623 63.3131 19.5623 63.4541H18.693C18.693 63.2724 18.74 63.0923 18.834 62.9137C18.928 62.7351 19.0627 62.5738 19.2381 62.4297C19.4167 62.2824 19.6297 62.1665 19.8772 62.0819C20.1278 61.9942 20.4066 61.9504 20.7136 61.9504C21.0833 61.9504 21.4091 62.013 21.691 62.1383C21.9761 62.2636 22.1985 62.4532 22.3583 62.7069C22.5212 62.9575 22.6027 63.2724 22.6027 63.6514V66.0198C22.6027 66.189 22.6168 66.3691 22.6449 66.5602C22.6763 66.7513 22.7217 66.9158 22.7812 67.0536V67.1288H21.8743C21.8304 67.0285 21.796 66.8954 21.7709 66.7294C21.7459 66.5602 21.7333 66.4036 21.7333 66.2595ZM21.8837 64.0462L21.8931 64.6571H21.0144C20.7669 64.6571 20.546 64.6774 20.3518 64.7181C20.1576 64.7557 19.9947 64.8137 19.8631 64.892C19.7315 64.9703 19.6313 65.069 19.5623 65.1881C19.4934 65.304 19.459 65.4402 19.459 65.5969C19.459 65.7566 19.495 65.9023 19.567 66.0339C19.6391 66.1655 19.7472 66.2704 19.8913 66.3487C20.0385 66.4239 20.2186 66.4615 20.4317 66.4615C20.698 66.4615 20.9329 66.4051 21.1365 66.2923C21.3402 66.1796 21.5015 66.0417 21.6205 65.8788C21.7427 65.7159 21.8085 65.5577 21.8179 65.4042L22.1891 65.8224C22.1672 65.954 22.1077 66.0997 22.0106 66.2595C21.9135 66.4192 21.7834 66.5727 21.6205 66.72C21.4608 66.8641 21.2697 66.9847 21.0473 67.0818C20.828 67.1758 20.5805 67.2228 20.3048 67.2228C19.9602 67.2228 19.6579 67.1554 19.3979 67.0207C19.141 66.886 18.9405 66.7059 18.7964 66.4803C18.6554 66.2516 18.5849 65.9963 18.5849 65.7144C18.5849 65.4418 18.6382 65.2022 18.7447 64.9954C18.8512 64.7855 19.0047 64.6116 19.2052 64.4738C19.4057 64.3328 19.6469 64.2263 19.9289 64.1543C20.2108 64.0822 20.5257 64.0462 20.8734 64.0462H21.8837ZM26.0988 62.0444V62.7116H23.3498V62.0444H26.0988ZM24.2802 60.8085H25.1496V65.8694C25.1496 66.0417 25.1762 66.1717 25.2295 66.2595C25.2827 66.3472 25.3516 66.4051 25.4362 66.4333C25.5208 66.4615 25.6117 66.4756 25.7088 66.4756C25.7808 66.4756 25.856 66.4693 25.9343 66.4568C26.0158 66.4411 26.0769 66.4286 26.1176 66.4192L26.1223 67.1288C26.0534 67.1507 25.9625 67.1711 25.8497 67.1899C25.7401 67.2118 25.607 67.2228 25.4503 67.2228C25.2373 67.2228 25.0415 67.1805 24.8629 67.0959C24.6844 67.0113 24.5418 66.8703 24.4353 66.673C24.3319 66.4725 24.2802 66.2031 24.2802 65.8647V60.8085ZM30.0789 65.7801C30.0789 65.6548 30.0507 65.5389 29.9943 65.4324C29.9411 65.3228 29.8299 65.2241 29.6607 65.1364C29.4947 65.0455 29.2441 64.9672 28.9089 64.9014C28.6269 64.8419 28.3716 64.7714 28.1429 64.6899C27.9173 64.6085 27.7247 64.5098 27.5649 64.3939C27.4083 64.278 27.2877 64.1417 27.2031 63.9851C27.1185 63.8284 27.0762 63.6452 27.0762 63.4353C27.0762 63.2348 27.1201 63.0453 27.2078 62.8667C27.2986 62.6881 27.4255 62.5299 27.5884 62.3921C27.7544 62.2542 27.9534 62.1462 28.1852 62.0679C28.417 61.9895 28.6755 61.9504 28.9605 61.9504C29.3678 61.9504 29.7155 62.0224 30.0037 62.1665C30.292 62.3106 30.5128 62.5033 30.6663 62.7445C30.8198 62.9826 30.8966 63.2473 30.8966 63.5387H30.0272C30.0272 63.3977 29.9849 63.2614 29.9004 63.1298C29.8189 62.9951 29.6983 62.8839 29.5385 62.7962C29.3819 62.7085 29.1892 62.6646 28.9605 62.6646C28.7193 62.6646 28.5235 62.7022 28.3732 62.7774C28.2259 62.8495 28.1178 62.9419 28.0489 63.0547C27.9831 63.1674 27.9502 63.2865 27.9502 63.4118C27.9502 63.5058 27.9659 63.5904 27.9972 63.6655C28.0317 63.7376 28.0912 63.805 28.1758 63.8676C28.2604 63.9271 28.3794 63.9835 28.5329 64.0368C28.6864 64.09 28.8822 64.1433 29.1203 64.1965C29.537 64.2905 29.88 64.4033 30.1494 64.5349C30.4188 64.6665 30.6193 64.8278 30.7509 65.0189C30.8825 65.21 30.9483 65.4418 30.9483 65.7144C30.9483 65.9368 30.9013 66.1404 30.8073 66.3252C30.7164 66.5101 30.5833 66.6698 30.4079 66.8045C30.2356 66.9361 30.0288 67.0395 29.7876 67.1147C29.5495 67.1867 29.2816 67.2228 28.984 67.2228C28.5361 67.2228 28.157 67.1429 27.8469 66.9831C27.5367 66.8233 27.3018 66.6166 27.142 66.3628C26.9822 66.1091 26.9023 65.8412 26.9023 65.5593H27.7764C27.7889 65.7974 27.8578 65.9869 27.9831 66.1279C28.1084 66.2657 28.2619 66.3644 28.4436 66.4239C28.6253 66.4803 28.8055 66.5085 28.984 66.5085C29.2221 66.5085 29.4211 66.4772 29.5808 66.4145C29.7437 66.3519 29.8675 66.2657 29.9521 66.1561C30.0366 66.0464 30.0789 65.9211 30.0789 65.7801ZM34.7545 60.8931L32.4896 67.1288H31.5638L34.1718 60.2869H34.7686L34.7545 60.8931ZM36.653 67.1288L34.3833 60.8931L34.3692 60.2869H34.966L37.5834 67.1288H36.653ZM36.5355 64.596V65.3384H32.6916V64.596H36.5355ZM39.2375 63.0218V69.0836H38.3634V62.0444H39.1623L39.2375 63.0218ZM42.6631 64.5443V64.643C42.6631 65.0126 42.6193 65.3557 42.5316 65.6721C42.4438 65.9853 42.3154 66.2579 42.1462 66.4897C41.9802 66.7215 41.775 66.9017 41.5306 67.0301C41.2863 67.1585 41.0059 67.2228 40.6895 67.2228C40.3668 67.2228 40.0818 67.1695 39.8343 67.063C39.5868 66.9565 39.3769 66.8014 39.2046 66.5978C39.0323 66.3942 38.8944 66.1498 38.7911 65.8647C38.6908 65.5796 38.6219 65.2585 38.5843 64.9014V64.3751C38.6219 63.9992 38.6924 63.6624 38.7958 63.3648C38.8991 63.0672 39.0354 62.8134 39.2046 62.6035C39.3769 62.3905 39.5852 62.2292 39.8296 62.1195C40.0739 62.0068 40.3559 61.9504 40.6754 61.9504C40.9949 61.9504 41.2785 62.013 41.5259 62.1383C41.7734 62.2605 41.9818 62.4359 42.1509 62.6646C42.3201 62.8933 42.447 63.1674 42.5316 63.487C42.6193 63.8034 42.6631 64.1558 42.6631 64.5443ZM41.7891 64.643V64.5443C41.7891 64.2905 41.7625 64.0524 41.7092 63.83C41.656 63.6045 41.5729 63.4071 41.4602 63.2379C41.3505 63.0656 41.2095 62.9309 41.0372 62.8338C40.8649 62.7336 40.6597 62.6834 40.4217 62.6834C40.2024 62.6834 40.0113 62.721 39.8484 62.7962C39.6886 62.8714 39.5523 62.9732 39.4395 63.1017C39.3268 63.227 39.2343 63.3711 39.1623 63.534C39.0934 63.6937 39.0417 63.8598 39.0072 64.0321V65.2491C39.0699 65.4684 39.1576 65.6752 39.2704 65.8694C39.3832 66.0605 39.5335 66.2156 39.7215 66.3346C39.9095 66.4505 40.146 66.5085 40.4311 66.5085C40.666 66.5085 40.8681 66.4599 41.0372 66.3628C41.2095 66.2626 41.3505 66.1263 41.4602 65.954C41.5729 65.7817 41.656 65.5843 41.7092 65.3619C41.7625 65.1364 41.7891 64.8967 41.7891 64.643ZM44.6415 63.0218V69.0836H43.7674V62.0444H44.5663L44.6415 63.0218ZM48.0671 64.5443V64.643C48.0671 65.0126 48.0232 65.3557 47.9355 65.6721C47.8478 65.9853 47.7194 66.2579 47.5502 66.4897C47.3842 66.7215 47.179 66.9017 46.9346 67.0301C46.6903 67.1585 46.4099 67.2228 46.0935 67.2228C45.7708 67.2228 45.4857 67.1695 45.2382 67.063C44.9908 66.9565 44.7809 66.8014 44.6086 66.5978C44.4363 66.3942 44.2984 66.1498 44.195 65.8647C44.0948 65.5796 44.0259 65.2585 43.9883 64.9014V64.3751C44.0259 63.9992 44.0964 63.6624 44.1997 63.3648C44.3031 63.0672 44.4394 62.8134 44.6086 62.6035C44.7809 62.3905 44.9892 62.2292 45.2335 62.1195C45.4779 62.0068 45.7598 61.9504 46.0794 61.9504C46.3989 61.9504 46.6824 62.013 46.9299 62.1383C47.1774 62.2605 47.3857 62.4359 47.5549 62.6646C47.7241 62.8933 47.8509 63.1674 47.9355 63.487C48.0232 63.8034 48.0671 64.1558 48.0671 64.5443ZM47.1931 64.643V64.5443C47.1931 64.2905 47.1664 64.0524 47.1132 63.83C47.0599 63.6045 46.9769 63.4071 46.8641 63.2379C46.7545 63.0656 46.6135 62.9309 46.4412 62.8338C46.2689 62.7336 46.0637 62.6834 45.8256 62.6834C45.6063 62.6834 45.4152 62.721 45.2523 62.7962C45.0926 62.8714 44.9563 62.9732 44.8435 63.1017C44.7307 63.227 44.6383 63.3711 44.5663 63.534C44.4973 63.6937 44.4457 63.8598 44.4112 64.0321V65.2491C44.4738 65.4684 44.5616 65.6752 44.6743 65.8694C44.7871 66.0605 44.9375 66.2156 45.1255 66.3346C45.3134 66.4505 45.5499 66.5085 45.835 66.5085C46.07 66.5085 46.272 66.4599 46.4412 66.3628C46.6135 66.2626 46.7545 66.1263 46.8641 65.954C46.9769 65.7817 47.0599 65.5843 47.1132 65.3619C47.1664 65.1364 47.1931 64.8967 47.1931 64.643Z" fill="#222F43"/>
<path d="M33.0676 19.2227C31.2674 17.4182 28.8701 16.4258 26.3223 16.4258C21.0636 16.4258 16.7845 20.7049 16.7845 25.9636C16.7845 27.6435 17.2227 29.2847 18.0562 30.7325L16.7029 35.6733L21.7597 34.3457C23.1517 35.1062 24.7198 35.5058 26.3181 35.5058H26.3223C31.5767 35.5058 35.9504 31.2266 35.9504 25.9679C35.9504 23.4202 34.8677 21.0271 33.0676 19.2227ZM26.3223 33.8989C24.896 33.8989 23.4997 33.5166 22.2838 32.7948L21.996 32.6229L18.9971 33.4091L19.7962 30.4833L19.6072 30.1826C18.8124 28.9195 18.3956 27.463 18.3956 25.9636C18.3956 21.5943 21.953 18.0369 26.3266 18.0369C28.4447 18.0369 30.4339 18.8618 31.929 20.3612C33.4242 21.8606 34.3436 23.8498 34.3393 25.9679C34.3393 30.3416 30.6917 33.8989 26.3223 33.8989ZM30.6702 27.9614C30.4339 27.8411 29.261 27.2654 29.0419 27.1881C28.8228 27.1064 28.6638 27.0678 28.5049 27.3084C28.3459 27.549 27.8905 28.0817 27.7487 28.245C27.6112 28.4039 27.4695 28.4254 27.2332 28.3051C25.8326 27.6048 24.9132 27.0549 23.9894 25.4695C23.7446 25.0485 24.2343 25.0786 24.6897 24.1678C24.7671 24.0088 24.7284 23.8713 24.6683 23.751C24.6081 23.6307 24.1312 22.4578 23.9336 21.9809C23.7403 21.5169 23.5426 21.5814 23.3966 21.5728C23.2591 21.5642 23.1001 21.5642 22.9411 21.5642C22.7822 21.5642 22.5244 21.6243 22.3053 21.8606C22.0862 22.1012 21.4718 22.6769 21.4718 23.8498C21.4718 25.0227 22.3268 26.157 22.4428 26.3159C22.5631 26.4749 24.1226 28.8808 26.5157 29.9162C28.028 30.5693 28.6209 30.6251 29.377 30.5134C29.8367 30.4447 30.7862 29.9377 30.9839 29.3792C31.1815 28.8207 31.1815 28.3438 31.1213 28.245C31.0655 28.1376 30.9065 28.0774 30.6702 27.9614Z" fill="#25D366"/>
</svg>
